<?xml version="1.0" encoding="utf-8"?>
<!-- Generator: Adobe Illustrator 23.0.3, SVG Export Plug-In . SVG Version: 6.00 Build 0)  -->
<svg version="1.1" id="Layer_1" xmlns="http://www.w3.org/2000/svg" xmlns:xlink="http://www.w3.org/1999/xlink" x="0px" y="0px"
	 viewBox="0 0 229 39" style="enable-background:new 0 0 229 39;" xml:space="preserve">
<style type="text/css">
	.st0{fill:#1E1E1E;}
	.st1{fill:#EEEFF1;}
	.st2{fill:#F19333;}
	.st3{fill:#F1F1F1;}
	.st4{fill:#EF2929;}
</style>
<text transform="matrix(1 0 0 1 -1795.1227 -3121.6406)"><tspan x="0" y="0" style="font-family:'Nexa-Light'; font-size:160px; letter-spacing:16;">CODING WITH </tspan><tspan x="1173.75" y="0" style="font-family:'NexaBold'; font-size:160px; letter-spacing:16;">CARL</tspan></text>
<text transform="matrix(1 0 0 1 504.2566 -3096.813)" style="font-family:'Code-Bold'; font-size:130px; letter-spacing:39;">CODING WITH CARL</text>
<text transform="matrix(1 0 0 1 2624.8774 -3121.6406)" style="font-family:'Bebas-Regular'; font-size:150px; letter-spacing:45;">CODING WITH CARL</text>
<rect x="2461.88" y="-943.84" class="st0" width="894" height="228"/>
<rect x="2461.88" y="-675.84" class="st1" width="894" height="228"/>
<rect x="2461.88" y="-407.84" class="st2" width="894" height="228"/>
<path class="st2" d="M-2586.42-1639.03c-3.06-0.4-6.1-0.98-9.16-1.35c-15.21-1.81-30.48-3.02-45.79-3.36
	c-6.15-0.13-12.31-0.34-18.47-0.46c-7.64-0.15-15.28-0.19-22.91,0.18c-2.42,0.12-4.84,0.27-7.26,0.48
	c-4.38,0.37-8.76,0.89-13.12,1.63c-8.67,1.47-17.41,2.76-25.81,5.19c-4.01,1.16-7.94,2.58-11.75,4.4
	c-7.85,3.75-15.69,6.37-24.42,6.52c-2.89,0.05-5.77,0.11-8.66,0.13c-2.89-0.02-5.77-0.08-8.66-0.13
	c-8.73-0.15-16.57-2.77-24.42-6.52c-11.79-5.64-24.76-7.42-37.56-9.59c-5.24-0.89-10.49-1.47-15.74-1.84
	c-7.72-0.54-15.46-0.62-23.2-0.52c-2.47,0.03-4.93,0.08-7.4,0.14c-5.14,0.12-10.28,0.28-15.42,0.39
	c-8.56,0.19-17.11,0.65-25.65,1.33c-6.72,0.54-13.44,1.22-20.14,2.02c-3.06,0.36-6.1,0.95-9.16,1.35c-1.81,0.23-2.58,1.14-2.5,2.96
	c0.28,6.05,0.53,12.09,0.76,18.14c0.06,1.64,1.14,2.37,2.41,2.97c5.65,2.67,8.46,7.36,9.49,13.31c2.31,13.27,4.78,26.49,8.79,39.38
	c2.21,7.09,4.91,13.99,8.57,20.47c7.05,12.49,18.15,20.16,31.61,23.38c7.83,1.87,15.58,2.83,23.23,2.93
	c13.28,0.17,26.25-2.28,38.82-7.1c2.13-0.82,4.24-1.7,6.35-2.65c2.67-1.21,5.32-2.52,7.96-3.95c3.88-2.09,7.2-4.72,10.15-7.71
	c6.34-6.42,10.93-14.48,15.45-22.41c5.96-10.46,10.19-21.62,12.73-33.46c1.72-8.04,6.81-12.34,13.54-12.19
	c6.72-0.15,11.82,4.15,13.54,12.19c2.53,11.84,6.76,23,12.73,33.46c6.63,11.63,13.4,23.53,25.6,30.12
	c13.97,7.55,28.52,12.12,43.49,13.36c10.75,0.89,21.72,0.07,32.86-2.59c2.39-0.57,4.71-1.29,6.95-2.14
	c2.16-0.83,4.25-1.79,6.25-2.89c6.58-3.62,12.2-8.7,16.57-15.33c0.64-0.97,1.26-1.98,1.84-3.02c3.66-6.48,6.36-13.38,8.57-20.47
	c4.02-12.89,6.49-26.11,8.79-39.38c1.03-5.94,3.84-10.64,9.49-13.31c1.27-0.6,2.35-1.33,2.41-2.97c0.22-6.05,0.48-12.09,0.76-18.14
	C-2583.83-1637.89-2584.61-1638.8-2586.42-1639.03z M-2885.94-1526.45c-11.95-0.87-23.16-4.25-31.51-13.64
	c-8.35-9.4-14.04-20.21-16.74-32.59c-1.66-7.64-2.44-15.38-2.96-23.12c-0.88-13.01,3.18-21.71,13.13-27.97l40.75,97.48
	C-2884.15-1526.33-2885.04-1526.39-2885.94-1526.45z M-2843.89-1532.08l-41.9-100.23c2.48-0.03,4.96-0.03,7.44-0.03l40.85,97.72
	C-2839.62-1533.7-2841.75-1532.85-2843.89-1532.08z M-2812.2-1560.76c-2.37,4.43-4.96,8.69-8,12.53l-35.12-84
	c10.99-0.15,21.74,1.07,32.01,5.19c10.38,4.16,17.16,11.33,18.7,22.85c0.43,3.21,0.41,6.4,0.64,9.98
	C-2803.78-1582.59-2806.59-1571.27-2812.2-1560.76z M-2710.74-1534.94c-11.68-5.22-18.81-15-24.58-25.81
	c-5.61-10.51-8.43-21.84-8.24-33.46c0.24-3.58,0.21-6.77,0.64-9.98c1.51-11.3,8.08-18.42,18.12-22.61l41.7,99.74
	C-2692.55-1528.33-2701.78-1530.94-2710.74-1534.94z M-2642.85-1530.76l-42.41-101.43c2.47-0.02,4.94-0.06,7.41-0.1l41.04,98.16
	C-2638.74-1532.82-2640.76-1531.7-2642.85-1530.76z M-2610.38-1595.79c-0.52,7.74-1.3,15.48-2.96,23.12
	c-1.61,7.41-4.3,14.26-7.99,20.58l-33.47-80.05c8.93,0.4,17.74,1.65,26.15,5.59C-2614.96-1620.14-2609.37-1610.85-2610.38-1595.79z"
	/>
<g>
	<g>
		<path class="st1" d="M-3269.81-1379.13c-10.65,10.65-24.8,15.98-38.8,15.98c-35.91,0-54.62-25.1-54.77-53.86
			c-0.3-28.45,18.26-55.08,54.77-55.08c14,0,28.15,5.33,38.8,15.98l-5.63,4.87c-9.13-9.13-21.15-13.54-33.17-13.54
			c-31.04,0-47.01,21.91-46.86,47.47c0.3,24.95,16.13,46.56,46.86,46.56c12.02,0,24.19-4.56,33.32-13.54L-3269.81-1379.13z"/>
		<path class="st1" d="M-3134.71-1417.47c-0.15,28-17.95,54.92-53.71,54.92c-35.75,0-53.71-27.08-53.71-55.23
			c0-28.6,17.8-54.77,53.71-54.77S-3134.56-1446.23-3134.71-1417.47z M-3234.06-1417.63c0.15,24.04,15.37,47.47,45.64,47.47
			c30.43,0,45.8-23.43,45.8-47.47c0-24.65-15.21-47.32-45.8-47.32S-3234.21-1442.73-3234.06-1417.63z"/>
		<path class="st1" d="M-3006.15-1418.84c0.61,27.08-16.74,54.47-54.01,54.47c-12.02,0-24.04,0-36.06,0v-106.5
			c12.02,0,24.04,0,36.06,0C-3024.1-1470.88-3006.76-1445.01-3006.15-1418.84z M-3088-1463.12v90.83h27.84
			c31.65,0,46.25-23.73,45.8-46.56c-0.46-22.21-15.06-44.27-45.8-44.27H-3088z"/>
		<path class="st1" d="M-2967.51-1364.38v-106.5h8.06v106.5H-2967.51z"/>
		<path class="st1" d="M-2910.61-1470.88l71.66,88.09v-88.09h8.06v106.5h-3.19l-71.81-87.94v87.94h-8.22v-106.5H-2910.61z"/>
		<path class="st1" d="M-2703.09-1451.25c-9.28-9.13-22.21-13.69-34.23-13.69c-31.19,0-47.16,22.82-47.01,47.47
			c0,25.1,15.98,46.71,47.01,46.71c11.41,0,23.28-3.96,32.41-12.32v-29.82h-37.12v-7.15h44.88v39.86
			c-11.11,11.11-24.34,17.19-40.17,17.19c-36.21,0-54.92-25.26-54.92-54.32c-0.15-33.32,22.52-55.08,54.92-55.08
			c14,0,28.15,5.33,38.95,15.97L-2703.09-1451.25z"/>
		<path class="st1" d="M-2541.36-1470.88h4.56l32.56,97.37l33.02-97.37h8.82l-37.58,106.81h-8.82l-16.89-49.9l-13.39-42.14
			l-13.39,41.84l-17.04,50.21h-8.82l-37.28-106.81h8.67l32.86,97.37L-2541.36-1470.88z"/>
		<path class="st1" d="M-2426.8-1364.38v-106.5h8.06v106.5H-2426.8z"/>
		<path class="st1" d="M-2347.69-1463.42h-38.49v-7.3h85.2v7.3h-38.49v99.05h-8.22V-1463.42z"/>
		<path class="st1" d="M-2192.35-1364.38v-48.38h-67.86v48.38h-8.22v-106.5h8.22v50.66h67.86v-50.66h8.22v106.5H-2192.35z"/>
	</g>
	<g>
		<polygon class="st1" points="-2956.77,-1307.5 -2956.77,-1322.93 -3013.44,-1322.93 -3028.86,-1322.93 -3028.86,-1307.5 
			-3028.86,-1166.29 -3028.86,-1150.86 -3013.44,-1150.86 -2956.77,-1150.86 -2956.77,-1166.29 -3013.44,-1166.29 -3013.44,-1307.5 
					"/>
		<polygon class="st1" points="-2591.49,-1307.5 -2591.49,-1322.93 -2534.83,-1322.93 -2519.4,-1322.93 -2519.4,-1307.5 
			-2519.4,-1166.29 -2519.4,-1150.86 -2534.83,-1150.86 -2591.49,-1150.86 -2591.49,-1166.29 -2534.83,-1166.29 -2534.83,-1307.5 		
			"/>
		<g>
			<path class="st2" d="M-2868.83-1206.22c-8.38,8.26-19.21,12.11-30.96,12.11c-30.27,0-43.07-20.84-43.19-42.02
				c-0.12-21.3,13.74-42.95,43.19-42.95c11.06,0,21.54,4.19,29.92,12.46l-10.24,9.89c-5.35-5.24-12.57-7.68-19.67-7.68
				c-19.67,0-28.17,14.67-28.05,28.29c0.12,13.5,7.92,27.59,28.05,27.59c7.1,0,15.13-2.91,20.49-8.27L-2868.83-1206.22z"/>
			<path class="st2" d="M-2794.33-1211.34h-42.61l-6.98,15.37h-16.65l36.55-81.49h16.76l36.55,81.49h-16.76L-2794.33-1211.34z
				 M-2815.64-1260.35l-15.13,34.69h30.27L-2815.64-1260.35z"/>
			<path class="st2" d="M-2679.91-1195.97h-18.28l-23.75-27.24h-14.78v27.24h-15.37v-81.6c12.92,0,25.84,0.12,38.76,0.12
				c19.21,0.12,29.34,12.92,29.34,27.01c0,11.18-5.12,22.47-20.6,25.61l24.68,27.82V-1195.97z M-2736.71-1263.14v26.08h23.4
				c9.78,0,13.97-6.52,13.97-13.04c0-6.52-4.31-13.04-13.97-13.04H-2736.71z"/>
			<path class="st2" d="M-2646.62-1277.46v67.28h41.91v14.2h-57.27v-81.49H-2646.62z"/>
		</g>
	</g>
</g>
<g>
	<path class="st1" d="M30,24c-1.24,1.24-2.9,1.87-4.53,1.87c-4.2,0-6.38-2.93-6.4-6.3c-0.04-3.33,2.13-6.44,6.4-6.44
		c1.64,0,3.29,0.62,4.53,1.87l-0.66,0.57c-1.07-1.07-2.47-1.58-3.88-1.58c-3.63,0-5.5,2.56-5.48,5.55c0.04,2.92,1.89,5.44,5.48,5.44
		c1.4,0,2.83-0.53,3.89-1.58L30,24z"/>
	<path class="st1" d="M45.79,19.52c-0.02,3.27-2.1,6.42-6.28,6.42c-4.18,0-6.28-3.17-6.28-6.46c0-3.34,2.08-6.4,6.28-6.4
		S45.81,16.16,45.79,19.52z M34.18,19.5c0.02,2.81,1.8,5.55,5.33,5.55c3.56,0,5.35-2.74,5.35-5.55c0-2.88-1.78-5.53-5.35-5.53
		S34.16,16.57,34.18,19.5z"/>
	<path class="st1" d="M60.82,19.36c0.07,3.17-1.96,6.37-6.31,6.37c-1.4,0-2.81,0-4.21,0V13.28c1.4,0,2.81,0,4.21,0
		C58.72,13.28,60.75,16.3,60.82,19.36z M51.25,14.18V24.8h3.25c3.7,0,5.41-2.77,5.35-5.44c-0.05-2.6-1.76-5.17-5.35-5.17H51.25z"/>
	<path class="st1" d="M65.33,25.72V13.28h0.94v12.45H65.33z"/>
	<path class="st1" d="M71.98,13.28l8.38,10.3v-10.3h0.94v12.45h-0.37l-8.39-10.28v10.28h-0.96V13.28H71.98z"/>
	<path class="st1" d="M96.24,15.57c-1.08-1.07-2.6-1.6-4-1.6c-3.65,0-5.51,2.67-5.49,5.55c0,2.93,1.87,5.46,5.49,5.46
		c1.33,0,2.72-0.46,3.79-1.44v-3.49h-4.34v-0.84h5.25v4.66c-1.3,1.3-2.85,2.01-4.69,2.01c-4.23,0-6.42-2.95-6.42-6.35
		c-0.02-3.89,2.63-6.44,6.42-6.44c1.64,0,3.29,0.62,4.55,1.87L96.24,15.57z"/>
	<path class="st1" d="M115.14,13.28h0.53l3.81,11.38l3.86-11.38h1.03l-4.39,12.48h-1.03l-1.97-5.83L115.41,15l-1.56,4.89l-1.99,5.87
		h-1.03l-4.36-12.48h1.01l3.84,11.38L115.14,13.28z"/>
	<path class="st1" d="M128.53,25.72V13.28h0.94v12.45H128.53z"/>
	<path class="st1" d="M137.78,14.15h-4.5v-0.85h9.96v0.85h-4.5v11.58h-0.96V14.15z"/>
	<path class="st1" d="M155.94,25.72v-5.66H148v5.66h-0.96V13.28H148v5.92h7.93v-5.92h0.96v12.45H155.94z"/>
	<g>
		<path class="st3" d="M177.76,24.14c-1.28,1.26-2.93,1.85-4.73,1.85c-4.62,0-6.58-3.18-6.6-6.42c-0.02-3.25,2.1-6.56,6.6-6.56
			c1.69,0,3.29,0.64,4.57,1.9l-1.56,1.51c-0.82-0.8-1.92-1.17-3.01-1.17c-3.01,0-4.3,2.24-4.29,4.32c0.02,2.06,1.21,4.21,4.29,4.21
			c1.08,0,2.31-0.44,3.13-1.26L177.76,24.14z"/>
		<path class="st3" d="M189.14,23.36h-6.51l-1.07,2.35h-2.54l5.58-12.45h2.56l5.58,12.45h-2.56L189.14,23.36z M185.88,15.87
			l-2.31,5.3h4.62L185.88,15.87z"/>
		<path class="st3" d="M206.62,25.71h-2.79l-3.63-4.16h-2.26v4.16h-2.35V13.24c1.97,0,3.95,0.02,5.92,0.02
			c2.93,0.02,4.48,1.97,4.48,4.13c0,1.71-0.78,3.43-3.15,3.91l3.77,4.25V25.71z M197.94,15.45v3.98h3.57c1.49,0,2.13-1,2.13-1.99
			c0-1-0.66-1.99-2.13-1.99H197.94z"/>
		<path class="st3" d="M211.7,13.26v10.28h6.4v2.17h-8.75V13.26H211.7z"/>
	</g>
</g>
<polygon class="st1" points="29.37,8.59 27.4,8.59 24.77,6.69 16.57,12.62 14.31,14.26 14.32,24.23 12.92,23.21 12.94,13.82 
	24.77,5.26 "/>
<polygon class="st1" points="33.24,30.38 24.77,36.5 13.21,28.13 10.96,26.51 10.96,26.46 10.96,25.08 24.77,35.07 31.26,30.38 "/>
<polygon class="st4" points="27.47,30.38 30.54,30.38 24.77,34.55 10.9,24.51 10.9,12.57 24.77,2.5 33.18,8.59 30.1,8.59 
	24.77,4.73 12.52,13.6 12.49,23.43 24.77,32.31 "/>
</svg>
